# xmcd CD database file
#
# Track frame offsets:
#	150
#	19385
#	43340
#	65212
#	90972
#	113745
#	143145
#	163832
#
# Disc length: 2506 seconds
#
# Revision: 1
# Processed by: cddbd v1.5.1PL2 Copyright (c) Steve Scherf et al.
# Submitted via: CDex 1.51
#
DISCID=6f09c808
DTITLE=The RC Succession - The RC Succession Masterpiecies
DYEAR=1900
DGENRE=Rock and Roll
TTITLE0=ステップ！
TTITLE1=エンジェル
TTITLE2=チャンスは今夜
TTITLE3=あきれて物も言えない
TTITLE4=ブン・ブン・ブン
TTITLE5=いい事ばかりはありゃしない
TTITLE6=スロー・バラード
TTITLE7=雨上がりの夜空に
EXTD=
EXTT0=
EXTT1=
EXTT2=
EXTT3=
EXTT4=
EXTT5=
EXTT6=
EXTT7=
PLAYORDER=
